<?xml version="1.0" standalone="no"?>
<!DOCTYPE svg PUBLIC "-//W3C//DTD SVG 20010904//EN"
 "http://www.w3.org/TR/2001/REC-SVG-20010904/DTD/svg10.dtd">
<svg version="1.0" xmlns="http://www.w3.org/2000/svg"
 width="512.000000pt" height="512.000000pt" viewBox="0 0 512.000000 512.000000"
 preserveAspectRatio="xMidYMid meet">
<metadata>
Created by potrace 1.11, written by Peter Selinger 2001-2013
</metadata>
<g transform="translate(0.000000,512.000000) scale(0.100000,-0.100000)"
fill="#000000" stroke="none">
<path d="M0 2560 l0 -2560 2560 0 2560 0 0 2560 0 2560 -2560 0 -2560 0 0
-2560z m1150 937 c234 -132 3020 -1742 3066 -1772 123 -80 126 -243 7 -325
-41 -28 -128 -38 -164 -20 -113 58 -3170 1829 -3191 1848 -91 84 -67 246 44
301 75 37 128 30 238 -32z"/>
<path d="M2488 2533 c-78 -85 -5 -203 106 -172 43 12 66 47 66 102 0 61 -38
97 -101 97 -37 0 -50 -5 -71 -27z"/>
</g>
</svg>
