<svg xmlns="http://www.w3.org/2000/svg" xmlns:xlink="http://www.w3.org/1999/xlink" viewBox="0 0 300 400"><g transform="translate(512.082 -162.704) scale(.76584)"><circle r="107.567" cy="341.256" cx="-472.783" style="opacity:1;fill:#000;fill-opacity:1;fill-rule:nonzero;stroke:#fff;stroke-width:17.21711159;stroke-linecap:butt;stroke-linejoin:round;stroke-miterlimit:4;stroke-dasharray:none;stroke-dashoffset:0;stroke-opacity:1"/><circle r="87.813" cy="341.627" cx="-472.783" style="opacity:1;fill:#fff;fill-opacity:1;fill-rule:nonzero;stroke:none;stroke-width:0;stroke-linecap:butt;stroke-linejoin:round;stroke-miterlimit:4;stroke-dasharray:none;stroke-dashoffset:0;stroke-opacity:0"/><path style="opacity:1;fill:none;fill-opacity:1;fill-rule:nonzero;stroke:#000;stroke-width:125.71019745;stroke-linecap:round;stroke-linejoin:round;stroke-miterlimit:4;stroke-dasharray:none;stroke-dashoffset:0;stroke-opacity:1" d="M-93.33-74.125a163.919 163.919 0 0 1-224.594-13.082 163.919 163.919 0 0 1 0-224.975A163.919 163.919 0 0 1-93.33-325.263" transform="matrix(.10477 0 0 .08588 -506.329 359.108)" id="a"/><use height="100%" width="100%" transform="rotate(-60 -472.858 342.066)" id="b" xlink:href="#a" y="0" x="0"/><use height="100%" width="100%" transform="rotate(-60 -473.886 342.721)" id="c" xlink:href="#b" y="0" x="0"/><use height="100%" width="100%" transform="rotate(-60 -473.886 342.721)" id="d" xlink:href="#c" y="0" x="0"/><use height="100%" width="100%" transform="rotate(-60 -473.886 342.721)" id="e" xlink:href="#d" y="0" x="0"/><use height="100%" width="100%" transform="rotate(-60 -473.886 342.721)" xlink:href="#e"/><circle r="18.188" cy="341.516" cx="-472.931" style="opacity:1;fill:none;fill-opacity:1;fill-rule:nonzero;stroke:#000;stroke-width:12.28584385;stroke-linecap:butt;stroke-linejoin:round;stroke-miterlimit:4;stroke-dasharray:none;stroke-dashoffset:0;stroke-opacity:1"/></g><g transform="translate(512.082 39.796) scale(.76584)"><circle style="opacity:1;fill:#000;fill-opacity:1;fill-rule:nonzero;stroke:#fff;stroke-width:17.21711159;stroke-linecap:butt;stroke-linejoin:round;stroke-miterlimit:4;stroke-dasharray:none;stroke-dashoffset:0;stroke-opacity:1" cx="-472.783" cy="341.256" r="107.567"/><circle style="opacity:1;fill:#fff;fill-opacity:1;fill-rule:nonzero;stroke:none;stroke-width:0;stroke-linecap:butt;stroke-linejoin:round;stroke-miterlimit:4;stroke-dasharray:none;stroke-dashoffset:0;stroke-opacity:0" cx="-472.783" cy="341.627" r="87.813"/><path d="M-93.33-74.125a163.919 163.919 0 0 1-224.594-13.082 163.919 163.919 0 0 1 0-224.975A163.919 163.919 0 0 1-93.33-325.263" style="opacity:1;fill:none;fill-opacity:1;fill-rule:nonzero;stroke:#000;stroke-width:125.71019745;stroke-linecap:round;stroke-linejoin:round;stroke-miterlimit:4;stroke-dasharray:none;stroke-dashoffset:0;stroke-opacity:1" transform="matrix(.10477 0 0 .08588 -506.329 359.108)"/><use xlink:href="#a" transform="rotate(-60 -472.858 342.066)" width="100%" height="100%"/><use xlink:href="#b" transform="rotate(-60 -473.886 342.721)" width="100%" height="100%"/><use xlink:href="#c" transform="rotate(-60 -473.886 342.721)" width="100%" height="100%"/><use xlink:href="#d" transform="rotate(-60 -473.886 342.721)" width="100%" height="100%"/><use xlink:href="#e" transform="rotate(-60 -473.886 342.721)" width="100%" height="100%"/><circle style="opacity:1;fill:none;fill-opacity:1;fill-rule:nonzero;stroke:#000;stroke-width:12.28584385;stroke-linecap:butt;stroke-linejoin:round;stroke-miterlimit:4;stroke-dasharray:none;stroke-dashoffset:0;stroke-opacity:1" cx="-472.931" cy="341.516" r="18.188"/></g></svg>