<svg xmlns="http://www.w3.org/2000/svg" viewBox="0 0 300 400"><g transform="translate(0 -652.362)"><circle r="61.118" cy="718.122" cx="97.786" style="opacity:1;fill:#fff;fill-opacity:1;fill-rule:nonzero;stroke:none;stroke-width:8;stroke-linecap:round;stroke-linejoin:round;stroke-miterlimit:4;stroke-dasharray:none;stroke-dashoffset:0;stroke-opacity:1"/><circle style="opacity:1;fill:#fff;fill-opacity:1;fill-rule:nonzero;stroke:none;stroke-width:8;stroke-linecap:round;stroke-linejoin:round;stroke-miterlimit:4;stroke-dasharray:none;stroke-dashoffset:0;stroke-opacity:1" cx="97.786" cy="808.122" r="61.118"/><circle style="opacity:1;fill:#fff;fill-opacity:1;fill-rule:nonzero;stroke:none;stroke-width:8;stroke-linecap:round;stroke-linejoin:round;stroke-miterlimit:4;stroke-dasharray:none;stroke-dashoffset:0;stroke-opacity:1" cx="97.786" cy="896.622" r="61.118"/><circle r="61.118" cy="986.622" cx="97.786" style="opacity:1;fill:#fff;fill-opacity:1;fill-rule:nonzero;stroke:none;stroke-width:8;stroke-linecap:round;stroke-linejoin:round;stroke-miterlimit:4;stroke-dasharray:none;stroke-dashoffset:0;stroke-opacity:1"/><circle style="opacity:1;fill:#fff;fill-opacity:1;fill-rule:nonzero;stroke:none;stroke-width:8;stroke-linecap:round;stroke-linejoin:round;stroke-miterlimit:4;stroke-dasharray:none;stroke-dashoffset:0;stroke-opacity:1" cx="202.214" cy="718.122" r="61.118"/><circle r="61.118" cy="808.122" cx="202.214" style="opacity:1;fill:#fff;fill-opacity:1;fill-rule:nonzero;stroke:none;stroke-width:8;stroke-linecap:round;stroke-linejoin:round;stroke-miterlimit:4;stroke-dasharray:none;stroke-dashoffset:0;stroke-opacity:1"/><circle r="61.118" cy="896.622" cx="202.214" style="opacity:1;fill:#fff;fill-opacity:1;fill-rule:nonzero;stroke:none;stroke-width:8;stroke-linecap:round;stroke-linejoin:round;stroke-miterlimit:4;stroke-dasharray:none;stroke-dashoffset:0;stroke-opacity:1"/><circle style="opacity:1;fill:#fff;fill-opacity:1;fill-rule:nonzero;stroke:none;stroke-width:8;stroke-linecap:round;stroke-linejoin:round;stroke-miterlimit:4;stroke-dasharray:none;stroke-dashoffset:0;stroke-opacity:1" cx="202.214" cy="986.622" r="61.118"/><circle r="46.095" cy="718.122" cx="97.786" style="opacity:1;fill:#000;fill-opacity:1;fill-rule:nonzero;stroke:none;stroke-width:8;stroke-linecap:round;stroke-linejoin:round;stroke-miterlimit:4;stroke-dasharray:none;stroke-dashoffset:0;stroke-opacity:1"/><circle r="39.693" cy="718.122" cx="97.786" style="opacity:1;fill:#fff;fill-opacity:1;fill-rule:nonzero;stroke:none;stroke-width:8;stroke-linecap:round;stroke-linejoin:round;stroke-miterlimit:4;stroke-dasharray:none;stroke-dashoffset:0;stroke-opacity:1"/><path style="opacity:1;fill:none;fill-opacity:.29670332;fill-rule:nonzero;stroke:#000;stroke-width:6.75044918;stroke-linecap:round;stroke-linejoin:round;stroke-miterlimit:4;stroke-dasharray:13.50089867,13.50089867;stroke-dashoffset:0;stroke-opacity:1" d="M114.384-718.779a21.548 21.548 0 0 1-21.143 21.544 21.548 21.548 0 0 1-21.937-20.734 21.548 21.548 0 0 1 20.317-22.323 21.548 21.548 0 0 1 22.702 19.894" transform="scale(1 -1) rotate(.395)"/><circle r="8.032" cy="718.122" cx="97.786" style="opacity:1;fill:#000;fill-opacity:1;fill-rule:nonzero;stroke:none;stroke-width:8;stroke-linecap:round;stroke-linejoin:round;stroke-miterlimit:4;stroke-dasharray:none;stroke-dashoffset:0;stroke-opacity:1"/><circle r="3.668" cy="718.122" cx="97.786" style="opacity:1;fill:#fff;fill-opacity:1;fill-rule:nonzero;stroke:none;stroke-width:8;stroke-linecap:round;stroke-linejoin:round;stroke-miterlimit:4;stroke-dasharray:none;stroke-dashoffset:0;stroke-opacity:1"/><circle style="opacity:1;fill:#000;fill-opacity:1;fill-rule:nonzero;stroke:none;stroke-width:8;stroke-linecap:round;stroke-linejoin:round;stroke-miterlimit:4;stroke-dasharray:none;stroke-dashoffset:0;stroke-opacity:1" cx="97.786" cy="808.122" r="46.095"/><circle style="opacity:1;fill:#fff;fill-opacity:1;fill-rule:nonzero;stroke:none;stroke-width:8;stroke-linecap:round;stroke-linejoin:round;stroke-miterlimit:4;stroke-dasharray:none;stroke-dashoffset:0;stroke-opacity:1" cx="97.786" cy="808.122" r="39.693"/><path transform="scale(1 -1) rotate(.395)" d="M113.764-808.777a21.548 21.548 0 0 1-21.143 21.544 21.548 21.548 0 0 1-21.937-20.734A21.548 21.548 0 0 1 91-830.29a21.548 21.548 0 0 1 22.702 19.894" style="opacity:1;fill:none;fill-opacity:.29670332;fill-rule:nonzero;stroke:#000;stroke-width:6.75044918;stroke-linecap:round;stroke-linejoin:round;stroke-miterlimit:4;stroke-dasharray:13.50089867,13.50089867;stroke-dashoffset:0;stroke-opacity:1"/><circle style="opacity:1;fill:#000;fill-opacity:1;fill-rule:nonzero;stroke:none;stroke-width:8;stroke-linecap:round;stroke-linejoin:round;stroke-miterlimit:4;stroke-dasharray:none;stroke-dashoffset:0;stroke-opacity:1" cx="97.786" cy="808.122" r="8.032"/><circle style="opacity:1;fill:#fff;fill-opacity:1;fill-rule:nonzero;stroke:none;stroke-width:8;stroke-linecap:round;stroke-linejoin:round;stroke-miterlimit:4;stroke-dasharray:none;stroke-dashoffset:0;stroke-opacity:1" cx="97.786" cy="808.122" r="3.668"/><circle style="opacity:1;fill:#000;fill-opacity:1;fill-rule:nonzero;stroke:none;stroke-width:8;stroke-linecap:round;stroke-linejoin:round;stroke-miterlimit:4;stroke-dasharray:none;stroke-dashoffset:0;stroke-opacity:1" cx="97.786" cy="896.622" r="46.095"/><circle style="opacity:1;fill:#fff;fill-opacity:1;fill-rule:nonzero;stroke:none;stroke-width:8;stroke-linecap:round;stroke-linejoin:round;stroke-miterlimit:4;stroke-dasharray:none;stroke-dashoffset:0;stroke-opacity:1" cx="97.786" cy="896.622" r="39.693"/><path transform="scale(1 -1) rotate(.395)" d="M113.154-897.274a21.548 21.548 0 0 1-21.143 21.543 21.548 21.548 0 0 1-21.937-20.733 21.548 21.548 0 0 1 20.317-22.324 21.548 21.548 0 0 1 22.702 19.895" style="opacity:1;fill:none;fill-opacity:.29670332;fill-rule:nonzero;stroke:#000;stroke-width:6.75044918;stroke-linecap:round;stroke-linejoin:round;stroke-miterlimit:4;stroke-dasharray:13.50089867,13.50089867;stroke-dashoffset:0;stroke-opacity:1"/><circle style="opacity:1;fill:#000;fill-opacity:1;fill-rule:nonzero;stroke:none;stroke-width:8;stroke-linecap:round;stroke-linejoin:round;stroke-miterlimit:4;stroke-dasharray:none;stroke-dashoffset:0;stroke-opacity:1" cx="97.786" cy="896.622" r="8.032"/><circle style="opacity:1;fill:#fff;fill-opacity:1;fill-rule:nonzero;stroke:none;stroke-width:8;stroke-linecap:round;stroke-linejoin:round;stroke-miterlimit:4;stroke-dasharray:none;stroke-dashoffset:0;stroke-opacity:1" cx="97.786" cy="896.622" r="3.668"/><circle r="46.095" cy="986.622" cx="97.786" style="opacity:1;fill:#000;fill-opacity:1;fill-rule:nonzero;stroke:none;stroke-width:8;stroke-linecap:round;stroke-linejoin:round;stroke-miterlimit:4;stroke-dasharray:none;stroke-dashoffset:0;stroke-opacity:1"/><circle r="39.693" cy="986.622" cx="97.786" style="opacity:1;fill:#fff;fill-opacity:1;fill-rule:nonzero;stroke:none;stroke-width:8;stroke-linecap:round;stroke-linejoin:round;stroke-miterlimit:4;stroke-dasharray:none;stroke-dashoffset:0;stroke-opacity:1"/><path style="opacity:1;fill:none;fill-opacity:.29670332;fill-rule:nonzero;stroke:#000;stroke-width:6.75044918;stroke-linecap:round;stroke-linejoin:round;stroke-miterlimit:4;stroke-dasharray:13.50089867,13.50089867;stroke-dashoffset:0;stroke-opacity:1" d="M112.534-987.272a21.548 21.548 0 0 1-21.143 21.544 21.548 21.548 0 0 1-21.938-20.734 21.548 21.548 0 0 1 20.318-22.324 21.548 21.548 0 0 1 22.702 19.895" transform="scale(1 -1) rotate(.395)"/><circle r="8.032" cy="986.622" cx="97.786" style="opacity:1;fill:#000;fill-opacity:1;fill-rule:nonzero;stroke:none;stroke-width:8;stroke-linecap:round;stroke-linejoin:round;stroke-miterlimit:4;stroke-dasharray:none;stroke-dashoffset:0;stroke-opacity:1"/><circle r="3.668" cy="986.622" cx="97.786" style="opacity:1;fill:#fff;fill-opacity:1;fill-rule:nonzero;stroke:none;stroke-width:8;stroke-linecap:round;stroke-linejoin:round;stroke-miterlimit:4;stroke-dasharray:none;stroke-dashoffset:0;stroke-opacity:1"/><circle style="opacity:1;fill:#000;fill-opacity:1;fill-rule:nonzero;stroke:none;stroke-width:8;stroke-linecap:round;stroke-linejoin:round;stroke-miterlimit:4;stroke-dasharray:none;stroke-dashoffset:0;stroke-opacity:1" cx="202.214" cy="718.122" r="46.095"/><circle style="opacity:1;fill:#fff;fill-opacity:1;fill-rule:nonzero;stroke:none;stroke-width:8;stroke-linecap:round;stroke-linejoin:round;stroke-miterlimit:4;stroke-dasharray:none;stroke-dashoffset:0;stroke-opacity:1" cx="202.214" cy="718.122" r="39.693"/><path transform="scale(1 -1) rotate(.395)" d="M218.81-719.498a21.548 21.548 0 0 1-21.143 21.543 21.548 21.548 0 0 1-21.938-20.733 21.548 21.548 0 0 1 20.318-22.324 21.548 21.548 0 0 1 22.702 19.895" style="opacity:1;fill:none;fill-opacity:.29670332;fill-rule:nonzero;stroke:#000;stroke-width:6.75044918;stroke-linecap:round;stroke-linejoin:round;stroke-miterlimit:4;stroke-dasharray:13.50089867,13.50089867;stroke-dashoffset:0;stroke-opacity:1"/><circle style="opacity:1;fill:#000;fill-opacity:1;fill-rule:nonzero;stroke:none;stroke-width:8;stroke-linecap:round;stroke-linejoin:round;stroke-miterlimit:4;stroke-dasharray:none;stroke-dashoffset:0;stroke-opacity:1" cx="202.214" cy="718.122" r="8.032"/><circle style="opacity:1;fill:#fff;fill-opacity:1;fill-rule:nonzero;stroke:none;stroke-width:8;stroke-linecap:round;stroke-linejoin:round;stroke-miterlimit:4;stroke-dasharray:none;stroke-dashoffset:0;stroke-opacity:1" cx="202.214" cy="718.122" r="3.668"/><circle r="46.095" cy="808.122" cx="202.214" style="opacity:1;fill:#000;fill-opacity:1;fill-rule:nonzero;stroke:none;stroke-width:8;stroke-linecap:round;stroke-linejoin:round;stroke-miterlimit:4;stroke-dasharray:none;stroke-dashoffset:0;stroke-opacity:1"/><circle r="39.693" cy="808.122" cx="202.214" style="opacity:1;fill:#fff;fill-opacity:1;fill-rule:nonzero;stroke:none;stroke-width:8;stroke-linecap:round;stroke-linejoin:round;stroke-miterlimit:4;stroke-dasharray:none;stroke-dashoffset:0;stroke-opacity:1"/><path style="opacity:1;fill:none;fill-opacity:.29670332;fill-rule:nonzero;stroke:#000;stroke-width:6.75044918;stroke-linecap:round;stroke-linejoin:round;stroke-miterlimit:4;stroke-dasharray:13.50089867,13.50089867;stroke-dashoffset:0;stroke-opacity:1" d="M218.19-809.496a21.548 21.548 0 0 1-21.143 21.544 21.548 21.548 0 0 1-21.938-20.734 21.548 21.548 0 0 1 20.318-22.324 21.548 21.548 0 0 1 22.701 19.895" transform="scale(1 -1) rotate(.395)"/><circle r="8.032" cy="808.122" cx="202.214" style="opacity:1;fill:#000;fill-opacity:1;fill-rule:nonzero;stroke:none;stroke-width:8;stroke-linecap:round;stroke-linejoin:round;stroke-miterlimit:4;stroke-dasharray:none;stroke-dashoffset:0;stroke-opacity:1"/><circle r="3.668" cy="808.122" cx="202.214" style="opacity:1;fill:#fff;fill-opacity:1;fill-rule:nonzero;stroke:none;stroke-width:8;stroke-linecap:round;stroke-linejoin:round;stroke-miterlimit:4;stroke-dasharray:none;stroke-dashoffset:0;stroke-opacity:1"/><circle r="46.095" cy="896.622" cx="202.214" style="opacity:1;fill:#000;fill-opacity:1;fill-rule:nonzero;stroke:none;stroke-width:8;stroke-linecap:round;stroke-linejoin:round;stroke-miterlimit:4;stroke-dasharray:none;stroke-dashoffset:0;stroke-opacity:1"/><circle r="39.693" cy="896.622" cx="202.214" style="opacity:1;fill:#fff;fill-opacity:1;fill-rule:nonzero;stroke:none;stroke-width:8;stroke-linecap:round;stroke-linejoin:round;stroke-miterlimit:4;stroke-dasharray:none;stroke-dashoffset:0;stroke-opacity:1"/><path style="opacity:1;fill:none;fill-opacity:.29670332;fill-rule:nonzero;stroke:#000;stroke-width:6.75044918;stroke-linecap:round;stroke-linejoin:round;stroke-miterlimit:4;stroke-dasharray:13.50089867,13.50089867;stroke-dashoffset:0;stroke-opacity:1" d="M217.58-897.994a21.548 21.548 0 0 1-21.143 21.544 21.548 21.548 0 0 1-21.938-20.734 21.548 21.548 0 0 1 20.318-22.324 21.548 21.548 0 0 1 22.702 19.895" transform="scale(1 -1) rotate(.395)"/><circle r="8.032" cy="896.622" cx="202.214" style="opacity:1;fill:#000;fill-opacity:1;fill-rule:nonzero;stroke:none;stroke-width:8;stroke-linecap:round;stroke-linejoin:round;stroke-miterlimit:4;stroke-dasharray:none;stroke-dashoffset:0;stroke-opacity:1"/><circle r="3.668" cy="896.622" cx="202.214" style="opacity:1;fill:#fff;fill-opacity:1;fill-rule:nonzero;stroke:none;stroke-width:8;stroke-linecap:round;stroke-linejoin:round;stroke-miterlimit:4;stroke-dasharray:none;stroke-dashoffset:0;stroke-opacity:1"/><circle style="opacity:1;fill:#000;fill-opacity:1;fill-rule:nonzero;stroke:none;stroke-width:8;stroke-linecap:round;stroke-linejoin:round;stroke-miterlimit:4;stroke-dasharray:none;stroke-dashoffset:0;stroke-opacity:1" cx="202.214" cy="986.622" r="46.095"/><circle style="opacity:1;fill:#fff;fill-opacity:1;fill-rule:nonzero;stroke:none;stroke-width:8;stroke-linecap:round;stroke-linejoin:round;stroke-miterlimit:4;stroke-dasharray:none;stroke-dashoffset:0;stroke-opacity:1" cx="202.214" cy="986.622" r="39.693"/><path transform="scale(1 -1) rotate(.395)" d="M216.96-987.992a21.548 21.548 0 0 1-21.143 21.544 21.548 21.548 0 0 1-21.938-20.734 21.548 21.548 0 0 1 20.318-22.323 21.548 21.548 0 0 1 22.701 19.894" style="opacity:1;fill:none;fill-opacity:.29670332;fill-rule:nonzero;stroke:#000;stroke-width:6.75044918;stroke-linecap:round;stroke-linejoin:round;stroke-miterlimit:4;stroke-dasharray:13.50089867,13.50089867;stroke-dashoffset:0;stroke-opacity:1"/><circle style="opacity:1;fill:#000;fill-opacity:1;fill-rule:nonzero;stroke:none;stroke-width:8;stroke-linecap:round;stroke-linejoin:round;stroke-miterlimit:4;stroke-dasharray:none;stroke-dashoffset:0;stroke-opacity:1" cx="202.214" cy="986.622" r="8.032"/><circle style="opacity:1;fill:#fff;fill-opacity:1;fill-rule:nonzero;stroke:none;stroke-width:8;stroke-linecap:round;stroke-linejoin:round;stroke-miterlimit:4;stroke-dasharray:none;stroke-dashoffset:0;stroke-opacity:1" cx="202.214" cy="986.622" r="3.668"/></g></svg>